<svg width="40" height="31" viewBox="0 0 40 31" fill="none" xmlns="http://www.w3.org/2000/svg">
<path d="M0 2.5C0 1.11929 1.11929 0 2.5 0H37.5C38.8807 0 40 1.11929 40 2.5V2.5C40 3.88071 38.8807 5 37.5 5H2.5C1.11929 5 0 3.88071 0 2.5V2.5Z" fill="white"/>
<path d="M0 15.5C0 14.1193 1.11929 13 2.5 13H23.5C24.8807 13 26 14.1193 26 15.5V15.5C26 16.8807 24.8807 18 23.5 18H2.5C1.11929 18 0 16.8807 0 15.5V15.5Z" fill="white"/>
<path d="M0 28.5C0 27.1193 1.11929 26 2.5 26H34.5C35.8807 26 37 27.1193 37 28.5V28.5C37 29.8807 35.8807 31 34.5 31H2.5C1.11929 31 0 29.8807 0 28.5V28.5Z" fill="white"/>
</svg>
