<svg width="31" height="33" viewBox="0 0 31 33" fill="none" xmlns="http://www.w3.org/2000/svg">
<path d="M2.13674 30.71C1.31295 29.9742 1.24165 28.7099 1.97748 27.8861L25.2934 1.78305C26.0292 0.959263 27.2935 0.887958 28.1173 1.62379L28.8631 2.28996C29.6869 3.02579 29.7582 4.29011 29.0224 5.1139L5.70648 31.2169C4.97065 32.0407 3.70633 32.112 2.88254 31.3762L2.13674 30.71Z" fill="white"/>
<path d="M27.8163 31.3147C26.9902 32.048 25.7261 31.9728 24.9928 31.1467L1.75763 4.97184C1.02435 4.14579 1.09956 2.88169 1.92562 2.14841L2.67347 1.48455C3.49953 0.751263 4.76362 0.826472 5.49691 1.65253L28.7321 27.8274C29.4654 28.6535 29.3902 29.9176 28.5641 30.6509L27.8163 31.3147Z" fill="white"/>
<path d="M28.1902 30.9828C27.1576 31.8994 25.5775 31.8054 24.6609 30.7728L2.08957 5.34577C1.17296 4.3132 1.26697 2.73308 2.29954 1.81648C3.33212 0.899874 4.91223 0.993885 5.82884 2.02646L28.4002 27.4535C29.3168 28.4861 29.2228 30.0662 28.1902 30.9828Z" fill="white"/>
</svg>
