<svg width="34" height="25" viewBox="0 0 34 25" fill="none" xmlns="http://www.w3.org/2000/svg">
<path d="M9.5 1.5H24.5V23.5H9.5V1.5Z" stroke="black"/>
<rect x="12" y="4" width="2" height="2" fill="black"/>
<rect x="16" y="4" width="2" height="2" fill="black"/>
<rect x="20" y="4" width="2" height="2" fill="black"/>
<rect x="12" y="8" width="2" height="2" fill="black"/>
<rect x="16" y="8" width="2" height="2" fill="black"/>
<rect x="20" y="8" width="2" height="2" fill="black"/>
<rect x="12" y="12" width="2" height="2" fill="black"/>
<rect x="16" y="12" width="2" height="2" fill="black"/>
<rect x="20" y="12" width="2" height="2" fill="black"/>
<rect x="12" y="16" width="2" height="2" fill="black"/>
<rect x="16" y="16" width="2" height="2" fill="black"/>
<rect x="20" y="16" width="2" height="2" fill="black"/>
<rect x="12" y="20" width="2" height="2" fill="black"/>
<rect x="16" y="20" width="2" height="3" fill="black"/>
<rect x="9" y="23" width="16" height="2" fill="black"/>
<rect x="12" width="10" height="1" fill="black"/>
<rect x="20" y="20" width="2" height="2" fill="black"/>
<rect x="24.5" y="9.5" width="9" height="14" stroke="black"/>
<rect x="0.5" y="9.5" width="9" height="14" stroke="black"/>
<rect x="2.25" y="12.25" width="5.5" height="0.5" fill="#C4C4C4" stroke="black" stroke-width="0.5"/>
<rect x="2.25" y="14.25" width="5.5" height="0.5" fill="#C4C4C4" stroke="black" stroke-width="0.5"/>
<rect x="2.25" y="16.25" width="5.5" height="0.5" fill="#C4C4C4" stroke="black" stroke-width="0.5"/>
<rect x="2.25" y="18.25" width="5.5" height="0.5" fill="#C4C4C4" stroke="black" stroke-width="0.5"/>
<rect x="2.25" y="20.25" width="5.5" height="0.5" fill="#C4C4C4" stroke="black" stroke-width="0.5"/>
<rect x="26.25" y="12.25" width="5.5" height="0.5" fill="#C4C4C4" stroke="black" stroke-width="0.5"/>
<rect x="26.25" y="14.25" width="5.5" height="0.5" fill="#C4C4C4" stroke="black" stroke-width="0.5"/>
<rect x="26.25" y="16.25" width="5.5" height="0.5" fill="#C4C4C4" stroke="black" stroke-width="0.5"/>
<rect x="26.25" y="18.25" width="5.5" height="0.5" fill="#C4C4C4" stroke="black" stroke-width="0.5"/>
<rect x="26.25" y="20.25" width="5.5" height="0.5" fill="#C4C4C4" stroke="black" stroke-width="0.5"/>
</svg>
